<svg version="1.1" xmlns="http://www.w3.org/2000/svg" xmlns:xlink="http://www.w3.org/1999/xlink" width="18.93668" height="19.36037" viewBox="0,0,18.93668,19.36037"><g transform="translate(-230.53166,-170.31981)"><g data-paper-data="{&quot;isPaintingLayer&quot;:true}" fill-rule="nonzero" stroke="none" stroke-width="0.5" stroke-linecap="butt" stroke-linejoin="miter" stroke-miterlimit="10" stroke-dasharray="" stroke-dashoffset="0" style="mix-blend-mode: normal"><path d="M238.13575,171.40274c0.84988,-0.91177 2.21375,-1.3669 4.45259,-0.89276c1.52827,0.32365 1.71689,2.6277 2.34189,4.05938c1.59196,3.6467 1.82457,10.67493 -2.18556,13.14099c-1.69875,1.04465 -3.7882,2.41267 -5.69571,1.8309c-1.4547,-0.44368 -1.32606,-2.73969 -1.90079,-4.14776c-1.65895,-4.06424 -1.38762,-8.29339 -0.06811,-12.37363c0,0 0.76514,-2.30209 3.0557,-1.6171z" fill="#00cccc"/><path d="M248.68922,179.16004c0.80332,0.95304 1.09168,2.36164 0.3526,4.5275c-0.50451,1.47845 -2.81456,1.38953 -4.31083,1.83841c-3.81123,1.14336 -10.81667,0.53182 -12.78426,-3.745c-0.83349,-1.81172 -1.94119,-4.05009 -1.13496,-5.87411c0.61485,-1.39103 2.87889,-0.98809 4.3457,-1.3899c4.23379,-1.15981 8.39992,-0.38349 12.29258,1.4156c0,0 2.19377,1.03557 1.23916,3.22751z" fill="#00cccc"/><path d="M245.97724,180.26684c-0.45896,2.20334 -2.4883,2.00994 -2.88858,1.94944c-1.71727,0.25795 -3.45313,0.41439 -5.18852,0.45543c0,0 -2.49943,0.05358 -2.55301,-2.44584c-0.05358,-2.49943 2.44584,-2.55301 2.44584,-2.55301c1.6572,-0.03134 3.31569,-0.19199 4.95089,-0.46297l1.29571,0.09968c0,0 2.44747,0.50981 1.93766,2.95727z" fill="#ffffff"/><path d="M239.55965,173.9625c2.24247,0.19154 2.29372,2.22943 2.28164,2.63407c0.46194,1.67397 0.82533,3.37856 1.07409,5.09652c0,0 0.3528,2.47499 -2.12218,2.82778c-2.47499,0.3528 -2.82778,-2.12218 -2.82778,-2.12218c-0.22976,-1.64149 -0.58805,-3.26877 -1.05309,-4.8597l-0.05635,-1.29832c0,0 0.21276,-2.49093 2.70368,-2.27817z" fill="#ffffff"/></g></g></svg>