<svg version="1.1" xmlns="http://www.w3.org/2000/svg" xmlns:xlink="http://www.w3.org/1999/xlink" width="26.06519" height="71.75367" viewBox="0,0,26.06519,71.75367"><g transform="translate(-231.00713,-145.80992)"><g data-paper-data="{&quot;isPaintingLayer&quot;:true}" fill-rule="nonzero" stroke="none" stroke-linecap="butt" stroke-linejoin="miter" stroke-miterlimit="10" stroke-dasharray="" stroke-dashoffset="0" style="mix-blend-mode: normal"><path d="M233.35424,152.35777l0.1973,-0.62407c3.0824,-3.59107 7.42313,-8.36387 12.59772,-4.47181c1.11901,0.84166 1.65044,2.29638 2.17039,3.59646c0.44199,1.10514 0.48935,2.33085 0.67063,3.50721c1.00718,6.53582 8.73808,13.94152 8.03719,20.56296c-0.4827,4.56015 -8.35636,8.8174 -8.86487,13.38609c-1.09805,5.60319 -5.98052,13.92077 -12.99035,9.46847c-1.1175,-0.70978 -1.93412,-1.8422 -2.65952,-2.94963c-1.21072,-1.84833 -1.3264,-4.25463 -1.49592,-6.45767c-0.37832,-4.91632 10.45176,-9.32181 11.08124,-14.26602c0.34378,-2.7002 -10.61946,-6.2023 -10.53097,-8.92285c0.09999,-3.07421 -1.14691,-8.08636 -0.0491,-10.93373c0.31834,-0.82566 1.10174,-1.34441 1.83626,-1.89543z" fill="#00cccc" stroke-width="0.5"/><path d="M238.08279,192.90937c-2.46598,-0.411 -2.05499,-2.87698 -2.05499,-2.87698l0.25801,-1.5255c0.5374,-4.76646 9.60473,-9.02937 9.51416,-13.82914c-0.04349,-2.30508 -6.11727,-7.37369 -5.91971,-9.66374c0.34186,-3.96282 -2.5028,-5.41075 -2.5028,-9.43944c0,0 0,-2.5 2.5,-2.5c2.5,0 2.5,2.5 2.5,2.5c0,4.17814 6.99033,3.6055 6.62951,7.71823c-0.21057,2.40024 1.99278,8.9636 2.04047,11.38007c0.05835,2.95631 -1.9568,6.85824 -4.82595,9.89376c-1.69887,1.79739 -4.77543,2.75188 -4.96627,4.49241l-0.29546,1.79534c0,0 -0.411,2.46598 -2.87698,2.05499z" fill="#ffffff" stroke-width="0.5"/><path d="M245.13546,210.78354c0,3.74452 -2.97358,6.78005 -6.64168,6.78005c-3.6681,0 -6.64168,-3.03553 -6.64168,-6.78005c0,-3.74452 2.97358,-6.78005 6.64168,-6.78005c3.6681,0 6.64168,3.03553 6.64168,6.78005z" fill="#00cccc" stroke-width="0"/><path d="M235.99378,210.36843c0,-1.38071 1.11929,-2.5 2.5,-2.5c1.38071,0 2.5,1.11929 2.5,2.5c0,1.38071 -1.11929,2.5 -2.5,2.5c-1.38071,0 -2.5,-1.11929 -2.5,-2.5z" fill="#ffffff" stroke-width="0.5"/></g></g></svg>